G75*
%MOIN*%
%OFA0B0*%
%FSLAX25Y25*%
%IPPOS*%
%LPD*%
%AMOC8*
5,1,8,0,0,1.08239X$1,22.5*
%
%ADD10R,0.05906X0.01969*%
%ADD11R,0.01969X0.05906*%
%ADD12R,0.05118X0.05906*%
%ADD13R,0.02600X0.08000*%
%ADD14R,0.07000X0.20000*%
%ADD15R,0.05906X0.05118*%
%ADD16R,0.04000X0.13000*%
%ADD17R,0.15000X0.05000*%
%ADD18R,0.18000X0.07000*%
%ADD19R,0.11811X0.09843*%
%ADD20R,0.09843X0.11811*%
%ADD21R,0.05512X0.07087*%
%ADD22R,0.08661X0.09843*%
%ADD23R,0.06661X0.09843*%
%ADD24R,0.07874X0.01969*%
%ADD25R,0.05512X0.11811*%
%ADD26R,0.06000X0.07500*%
%ADD27R,0.08800X0.04800*%
%ADD28R,0.08661X0.14173*%
%ADD29R,0.13000X0.04000*%
%ADD30R,0.06299X0.07098*%
%ADD31C,0.01600*%
%ADD32C,0.02400*%
%ADD33C,0.01200*%
%ADD34C,0.01000*%
D10*
X0244533Y0115289D03*
X0244533Y0118439D03*
X0244533Y0121589D03*
X0244533Y0124738D03*
X0244533Y0127888D03*
X0244533Y0131037D03*
X0244533Y0134187D03*
X0244533Y0137337D03*
X0244533Y0140486D03*
X0244533Y0143636D03*
X0244533Y0146785D03*
X0290203Y0146785D03*
X0290203Y0143636D03*
X0290203Y0140486D03*
X0290203Y0137337D03*
X0290203Y0134187D03*
X0290203Y0131037D03*
X0290203Y0127888D03*
X0290203Y0124738D03*
X0290203Y0121589D03*
X0290203Y0118439D03*
X0290203Y0115289D03*
D11*
X0283116Y0108203D03*
X0279967Y0108203D03*
X0276817Y0108203D03*
X0273667Y0108203D03*
X0270518Y0108203D03*
X0267368Y0108203D03*
X0264219Y0108203D03*
X0261069Y0108203D03*
X0257919Y0108203D03*
X0254770Y0108203D03*
X0251620Y0108203D03*
X0251620Y0153872D03*
X0254770Y0153872D03*
X0257919Y0153872D03*
X0261069Y0153872D03*
X0264219Y0153872D03*
X0267368Y0153872D03*
X0270518Y0153872D03*
X0273667Y0153872D03*
X0276817Y0153872D03*
X0279967Y0153872D03*
X0283116Y0153872D03*
D12*
X0330793Y0191037D03*
X0338274Y0191037D03*
X0349543Y0148537D03*
X0357024Y0148537D03*
X0370793Y0148537D03*
X0378274Y0148537D03*
X0310774Y0079787D03*
X0303293Y0079787D03*
X0303274Y0071037D03*
X0295793Y0071037D03*
D13*
X0214533Y0111237D03*
X0209533Y0111237D03*
X0204533Y0111237D03*
X0199533Y0111237D03*
X0194533Y0111237D03*
X0189533Y0111237D03*
X0184533Y0111237D03*
X0179533Y0111237D03*
X0174533Y0111237D03*
X0169533Y0111237D03*
X0164533Y0111237D03*
X0159533Y0111237D03*
X0159533Y0150837D03*
X0164533Y0150837D03*
X0169533Y0150837D03*
X0174533Y0150837D03*
X0179533Y0150837D03*
X0184533Y0150837D03*
X0189533Y0150837D03*
X0194533Y0150837D03*
X0199533Y0150837D03*
X0204533Y0150837D03*
X0209533Y0150837D03*
X0214533Y0150837D03*
D14*
X0317033Y0150037D03*
X0317033Y0112037D03*
D15*
X0317033Y0096028D03*
X0317033Y0088547D03*
X0325783Y0088547D03*
X0325783Y0096028D03*
X0393283Y0102297D03*
X0393283Y0109778D03*
X0225783Y0108528D03*
X0225783Y0101047D03*
X0222949Y0128547D03*
X0222949Y0136028D03*
D16*
X0222033Y0181037D03*
X0232033Y0181037D03*
X0212033Y0181037D03*
X0202033Y0181037D03*
X0192033Y0181037D03*
X0182033Y0181037D03*
X0172033Y0181037D03*
X0162033Y0181037D03*
X0152033Y0181037D03*
X0142033Y0181037D03*
X0142033Y0201037D03*
X0152033Y0201037D03*
X0162033Y0201037D03*
X0172033Y0201037D03*
X0182033Y0201037D03*
X0192033Y0201037D03*
X0202033Y0201037D03*
X0212033Y0201037D03*
X0222033Y0201037D03*
X0232033Y0201037D03*
X0334533Y0136037D03*
X0344533Y0136037D03*
X0354533Y0136037D03*
X0364533Y0136037D03*
X0374533Y0136037D03*
X0384533Y0136037D03*
X0374533Y0056037D03*
X0364533Y0056037D03*
X0354533Y0056037D03*
X0344533Y0056037D03*
X0329533Y0046037D03*
X0319533Y0046037D03*
X0309533Y0046037D03*
X0299533Y0046037D03*
X0289533Y0046037D03*
X0289533Y0026037D03*
X0299533Y0026037D03*
X0309533Y0026037D03*
X0319533Y0026037D03*
X0329533Y0026037D03*
X0232033Y0061037D03*
X0222033Y0061037D03*
X0212033Y0061037D03*
X0202033Y0061037D03*
X0192033Y0061037D03*
X0182033Y0061037D03*
X0172033Y0061037D03*
X0162033Y0061037D03*
X0152033Y0061037D03*
X0142033Y0061037D03*
X0142033Y0081037D03*
X0152033Y0081037D03*
X0162033Y0081037D03*
X0172033Y0081037D03*
X0182033Y0081037D03*
X0192033Y0081037D03*
X0202033Y0081037D03*
X0212033Y0081037D03*
X0222033Y0081037D03*
X0232033Y0081037D03*
D17*
X0398283Y0092287D03*
X0408283Y0082287D03*
X0408283Y0112287D03*
X0398283Y0132287D03*
X0408283Y0142287D03*
D18*
X0448283Y0122287D03*
X0448283Y0102287D03*
D19*
X0398283Y0180703D03*
X0398283Y0201372D03*
D20*
X0403618Y0014787D03*
X0382949Y0014787D03*
D21*
X0369976Y0161037D03*
X0356591Y0161037D03*
D22*
X0423913Y0168636D03*
X0447929Y0168636D03*
X0447929Y0213518D03*
X0423913Y0213518D03*
X0436394Y0053557D03*
X0436394Y0018518D03*
D23*
X0457244Y0018518D03*
X0457244Y0053557D03*
D24*
X0434425Y0042337D03*
X0434425Y0039187D03*
X0434425Y0036037D03*
X0434425Y0032888D03*
X0434425Y0029738D03*
D25*
X0420783Y0229089D03*
X0448283Y0229089D03*
X0448283Y0247986D03*
X0420783Y0247986D03*
D26*
X0380783Y0208537D03*
X0370783Y0208537D03*
X0360783Y0208537D03*
X0350783Y0208537D03*
X0350783Y0173537D03*
X0360783Y0173537D03*
X0370783Y0173537D03*
X0380783Y0173537D03*
D27*
X0376083Y0229437D03*
X0376083Y0238537D03*
X0376083Y0247637D03*
D28*
X0400484Y0238537D03*
D29*
X0307033Y0211037D03*
X0307033Y0201037D03*
X0307033Y0191037D03*
X0307033Y0181037D03*
X0287033Y0181037D03*
X0287033Y0191037D03*
X0287033Y0201037D03*
X0287033Y0211037D03*
D30*
X0328935Y0071037D03*
X0340132Y0071037D03*
D31*
X0354533Y0056037D02*
X0354533Y0026037D01*
X0357033Y0023537D01*
X0415783Y0023537D01*
X0425134Y0032888D01*
X0434425Y0032888D01*
X0434425Y0036037D02*
X0424533Y0036037D01*
X0414533Y0026037D01*
X0367033Y0026037D01*
X0364533Y0028537D01*
X0364533Y0056037D01*
X0329533Y0046037D02*
X0329533Y0038537D01*
X0327033Y0036037D01*
X0288283Y0036037D01*
X0285783Y0038537D01*
X0285783Y0093537D01*
X0295783Y0103537D01*
X0295783Y0113537D01*
X0294031Y0115289D01*
X0290203Y0115289D01*
X0290203Y0118439D02*
X0294632Y0118439D01*
X0298283Y0114787D01*
X0298283Y0102287D01*
X0288283Y0092287D01*
X0288283Y0054787D01*
X0289533Y0053537D01*
X0289533Y0046037D01*
X0299533Y0046037D02*
X0299533Y0053537D01*
X0297033Y0056037D01*
X0293283Y0056037D01*
X0290783Y0058537D01*
X0290783Y0091037D01*
X0300783Y0101037D01*
X0300783Y0116037D01*
X0295232Y0121589D01*
X0290203Y0121589D01*
X0290203Y0124738D02*
X0295833Y0124738D01*
X0303283Y0117287D01*
X0303283Y0099787D01*
X0295793Y0092297D01*
X0295793Y0071037D01*
X0295793Y0061028D01*
X0298283Y0058537D01*
X0307033Y0058537D01*
X0309533Y0056037D01*
X0309533Y0046037D01*
X0278092Y0043011D02*
X0253618Y0018537D01*
X0138283Y0018537D01*
X0123283Y0033537D01*
X0123283Y0091037D01*
X0142033Y0109787D01*
X0149533Y0109787D01*
X0150783Y0111037D01*
X0150783Y0156037D01*
X0154533Y0159787D01*
X0168283Y0159787D01*
X0169533Y0158537D01*
X0169533Y0150837D01*
X0164533Y0150837D02*
X0164533Y0156037D01*
X0163283Y0157287D01*
X0155783Y0157287D01*
X0153283Y0154787D01*
X0153283Y0109787D01*
X0150783Y0107287D01*
X0143283Y0107287D01*
X0125783Y0089787D01*
X0125783Y0034787D01*
X0139533Y0021037D01*
X0252368Y0021037D01*
X0274942Y0043611D01*
X0274942Y0098685D01*
X0276817Y0100560D01*
X0276817Y0108203D01*
X0279967Y0108203D02*
X0279967Y0099960D01*
X0278092Y0098085D01*
X0278092Y0043011D01*
X0271792Y0044212D02*
X0271792Y0099285D01*
X0273549Y0101042D01*
X0273549Y0106667D01*
X0273667Y0106785D01*
X0273667Y0108203D01*
X0270518Y0108203D02*
X0270518Y0101761D01*
X0268643Y0099886D01*
X0268643Y0044812D01*
X0249868Y0026037D01*
X0142033Y0026037D01*
X0130783Y0037287D01*
X0130783Y0087287D01*
X0145783Y0102287D01*
X0155783Y0102287D01*
X0159533Y0106037D01*
X0159533Y0111237D01*
X0155783Y0108537D02*
X0152033Y0104787D01*
X0144533Y0104787D01*
X0128283Y0088537D01*
X0128283Y0036037D01*
X0140783Y0023537D01*
X0251118Y0023537D01*
X0271792Y0044212D01*
X0261069Y0047238D02*
X0261069Y0108203D01*
X0257919Y0108203D02*
X0257919Y0047839D01*
X0246118Y0036037D01*
X0154533Y0036037D01*
X0152033Y0038537D01*
X0152033Y0061037D01*
X0142033Y0061037D02*
X0142033Y0036037D01*
X0144533Y0033537D01*
X0247368Y0033537D01*
X0261069Y0047238D01*
X0254770Y0048439D02*
X0254770Y0108203D01*
X0251620Y0108203D02*
X0251620Y0049039D01*
X0243618Y0041037D01*
X0174533Y0041037D01*
X0172033Y0043537D01*
X0172033Y0061037D01*
X0162033Y0061037D02*
X0162033Y0041037D01*
X0164533Y0038537D01*
X0244868Y0038537D01*
X0254770Y0048439D01*
X0248618Y0049787D02*
X0248618Y0101953D01*
X0239533Y0111037D01*
X0239533Y0113537D01*
X0241285Y0115289D01*
X0244533Y0115289D01*
X0244533Y0118439D02*
X0240685Y0118439D01*
X0237033Y0114787D01*
X0237033Y0109787D01*
X0246118Y0100703D01*
X0246118Y0051037D01*
X0241118Y0046037D01*
X0194533Y0046037D01*
X0192033Y0048537D01*
X0192033Y0061037D01*
X0182033Y0061037D02*
X0182033Y0046037D01*
X0184533Y0043537D01*
X0242368Y0043537D01*
X0248618Y0049787D01*
X0243618Y0052287D02*
X0243618Y0099453D01*
X0234533Y0108537D01*
X0234533Y0116037D01*
X0240085Y0121589D01*
X0244533Y0121589D01*
X0244533Y0124738D02*
X0239484Y0124738D01*
X0232033Y0117287D01*
X0232033Y0107287D01*
X0241118Y0098203D01*
X0241118Y0053537D01*
X0238618Y0051037D01*
X0214533Y0051037D01*
X0212033Y0053537D01*
X0212033Y0061037D01*
X0202033Y0061037D02*
X0202033Y0051037D01*
X0204533Y0048537D01*
X0239868Y0048537D01*
X0243618Y0052287D01*
X0225665Y0092917D02*
X0225783Y0093035D01*
X0225783Y0101047D01*
X0164533Y0111237D02*
X0164533Y0117287D01*
X0163283Y0118537D01*
X0158283Y0118537D01*
X0155783Y0116037D01*
X0155783Y0108537D01*
X0232033Y0144787D02*
X0232033Y0154787D01*
X0241049Y0163803D01*
X0241049Y0205969D01*
X0235980Y0211037D01*
X0214533Y0211037D01*
X0212033Y0208537D01*
X0212033Y0201037D01*
X0202033Y0201037D02*
X0202033Y0211037D01*
X0204533Y0213537D01*
X0237368Y0213537D01*
X0237368Y0213400D01*
X0243549Y0207219D01*
X0243549Y0162553D01*
X0234533Y0153537D01*
X0234533Y0146037D01*
X0240085Y0140486D01*
X0244533Y0140486D01*
X0244533Y0143636D02*
X0240685Y0143636D01*
X0237033Y0147287D01*
X0237033Y0152287D01*
X0246049Y0161303D01*
X0246049Y0208606D01*
X0238618Y0216037D01*
X0194533Y0216037D01*
X0192033Y0213537D01*
X0192033Y0201037D01*
X0182033Y0201037D02*
X0182033Y0216037D01*
X0184533Y0218537D01*
X0239868Y0218537D01*
X0248549Y0209856D01*
X0248549Y0160053D01*
X0239533Y0151037D01*
X0239533Y0148537D01*
X0241285Y0146785D01*
X0244533Y0146785D01*
X0239484Y0137337D02*
X0232033Y0144787D01*
X0239484Y0137337D02*
X0244533Y0137337D01*
X0251620Y0153872D02*
X0251620Y0210535D01*
X0241118Y0221037D01*
X0174533Y0221037D01*
X0172033Y0218537D01*
X0172033Y0201037D01*
X0162033Y0201037D02*
X0162033Y0221037D01*
X0164533Y0223537D01*
X0242368Y0223537D01*
X0254770Y0211136D01*
X0254770Y0153872D01*
X0257919Y0153872D02*
X0257919Y0211736D01*
X0243618Y0226037D01*
X0154533Y0226037D01*
X0152033Y0223537D01*
X0152033Y0201037D01*
X0142033Y0201037D02*
X0142033Y0226037D01*
X0144533Y0228537D01*
X0244868Y0228537D01*
X0261069Y0212337D01*
X0261069Y0153872D01*
X0270518Y0153872D02*
X0270518Y0198272D01*
X0273283Y0201037D01*
X0287033Y0201037D01*
X0279533Y0206037D02*
X0277033Y0208537D01*
X0277033Y0216037D01*
X0279533Y0218537D01*
X0370783Y0218537D01*
X0375783Y0213537D01*
X0375783Y0154787D01*
X0388283Y0154787D01*
X0390783Y0152287D01*
X0390783Y0139787D01*
X0393283Y0137287D01*
X0407033Y0137287D01*
X0409533Y0134787D01*
X0409533Y0129787D01*
X0407033Y0127287D01*
X0395783Y0127287D01*
X0393283Y0124787D01*
X0393283Y0109778D01*
X0393283Y0102297D02*
X0393283Y0092287D01*
X0398283Y0092287D01*
X0398126Y0091205D01*
X0398283Y0132287D02*
X0385783Y0132287D01*
X0384533Y0136037D01*
X0387033Y0134787D01*
X0384533Y0136037D02*
X0384533Y0146037D01*
X0382033Y0148537D01*
X0378274Y0148537D01*
X0375783Y0154787D02*
X0367033Y0154787D01*
X0364533Y0152287D01*
X0364533Y0136037D01*
X0354533Y0136037D02*
X0349543Y0141028D01*
X0349543Y0148537D01*
X0356591Y0148970D02*
X0357024Y0148537D01*
X0356591Y0148970D02*
X0356591Y0161037D01*
X0356591Y0165594D01*
X0360783Y0169787D01*
X0360783Y0173537D01*
X0370783Y0173537D02*
X0370783Y0181037D01*
X0368283Y0183537D01*
X0348283Y0183537D01*
X0345783Y0181037D01*
X0345783Y0157287D01*
X0334533Y0146037D01*
X0334533Y0136037D01*
X0325783Y0134787D02*
X0325783Y0096028D01*
X0317033Y0096028D02*
X0317033Y0112037D01*
X0317033Y0132287D01*
X0315134Y0134187D01*
X0290203Y0134187D01*
X0290203Y0137337D02*
X0317033Y0137337D01*
X0317033Y0150037D01*
X0299533Y0146037D02*
X0299533Y0164787D01*
X0300783Y0166037D01*
X0318283Y0166037D01*
X0330783Y0178537D01*
X0330783Y0191028D01*
X0330793Y0191037D01*
X0330793Y0216028D01*
X0330783Y0216037D01*
X0368283Y0216037D01*
X0370783Y0213537D01*
X0370783Y0208537D01*
X0330783Y0216037D02*
X0289533Y0216037D01*
X0287033Y0213537D01*
X0287033Y0211037D01*
X0294533Y0206037D02*
X0279533Y0206037D01*
X0294533Y0206037D02*
X0299533Y0211037D01*
X0307033Y0211037D01*
X0319533Y0211037D01*
X0322033Y0208537D01*
X0322033Y0173537D01*
X0317033Y0168537D01*
X0299533Y0168537D01*
X0297033Y0166037D01*
X0297033Y0147287D01*
X0293382Y0143636D01*
X0290203Y0143636D01*
X0290203Y0146785D02*
X0292781Y0146785D01*
X0294533Y0148537D01*
X0294533Y0167287D01*
X0298283Y0171037D01*
X0315783Y0171037D01*
X0319533Y0174787D01*
X0319533Y0198537D01*
X0317033Y0201037D01*
X0307033Y0201037D01*
X0307033Y0191037D02*
X0314533Y0191037D01*
X0317033Y0188537D01*
X0317033Y0176037D01*
X0314533Y0173537D01*
X0284533Y0173537D01*
X0283116Y0172120D01*
X0283116Y0153872D01*
X0279967Y0153872D02*
X0279967Y0173970D01*
X0282033Y0176037D01*
X0305783Y0176037D01*
X0307033Y0177287D01*
X0307033Y0181037D01*
X0287033Y0181037D02*
X0279533Y0181037D01*
X0277033Y0178537D01*
X0277033Y0154089D01*
X0276817Y0153872D01*
X0273667Y0153872D02*
X0273667Y0187671D01*
X0277033Y0191037D01*
X0287033Y0191037D01*
X0299533Y0146037D02*
X0293982Y0140486D01*
X0290203Y0140486D01*
X0317033Y0137337D02*
X0323234Y0137337D01*
X0325783Y0134787D01*
X0354524Y0136047D02*
X0354533Y0136037D01*
X0369976Y0161037D02*
X0370783Y0161844D01*
X0370783Y0173537D01*
D32*
X0119533Y0092287D02*
X0119533Y0032287D01*
X0137033Y0014787D01*
X0254533Y0014787D01*
X0275783Y0036037D01*
X0285783Y0026037D01*
X0289533Y0026037D01*
X0299533Y0026037D01*
X0309533Y0026037D01*
X0319533Y0026037D01*
X0329533Y0026037D02*
X0329533Y0019787D01*
X0334533Y0014787D01*
X0344533Y0014787D01*
X0344533Y0056037D01*
X0340783Y0056037D01*
X0334533Y0062287D01*
X0307033Y0062287D01*
X0303274Y0066047D01*
X0303274Y0071037D01*
X0303293Y0071057D01*
X0303293Y0079787D01*
X0303283Y0079797D01*
X0303283Y0094787D01*
X0307033Y0098537D01*
X0307033Y0118537D01*
X0297683Y0127888D01*
X0290203Y0127888D01*
X0268933Y0127888D01*
X0265788Y0131032D01*
X0262634Y0134187D01*
X0244533Y0134187D01*
X0230695Y0134187D01*
X0228854Y0136028D01*
X0222949Y0136028D01*
X0228844Y0128547D02*
X0231335Y0131037D01*
X0244533Y0131037D01*
X0244533Y0127888D02*
X0237634Y0127888D01*
X0225783Y0116037D01*
X0225783Y0108528D01*
X0219465Y0115417D02*
X0222949Y0118902D01*
X0222949Y0128547D01*
X0228844Y0128547D01*
X0219465Y0115417D02*
X0219465Y0096037D01*
X0219465Y0095417D01*
X0221965Y0092917D01*
X0225665Y0092917D01*
X0234799Y0092917D01*
X0237993Y0089723D01*
X0237993Y0072912D01*
X0234868Y0069787D01*
X0207033Y0069787D01*
X0205783Y0071037D01*
X0134533Y0071037D01*
X0134533Y0086037D01*
X0147033Y0098537D01*
X0162033Y0098537D01*
X0169533Y0106037D01*
X0169533Y0111237D01*
X0169533Y0126037D01*
X0159533Y0136037D01*
X0159533Y0150837D01*
X0135783Y0108537D02*
X0135783Y0224787D01*
X0143283Y0232287D01*
X0245783Y0232287D01*
X0264219Y0213852D01*
X0264219Y0214472D01*
X0275783Y0226037D01*
X0350783Y0226037D01*
X0372033Y0247287D01*
X0373233Y0247287D01*
X0374483Y0246037D01*
X0376083Y0247637D01*
X0376432Y0247986D01*
X0420783Y0247986D01*
X0448283Y0247986D01*
X0453835Y0247986D01*
X0458283Y0243537D01*
X0458283Y0213537D01*
X0458283Y0161037D01*
X0393283Y0161037D01*
X0388283Y0166037D01*
X0388283Y0206037D01*
X0385783Y0208537D01*
X0380783Y0208537D01*
X0398283Y0201372D02*
X0398283Y0218537D01*
X0388283Y0228537D01*
X0376983Y0228537D01*
X0376083Y0229437D01*
X0376432Y0229089D01*
X0376083Y0238537D02*
X0368283Y0238537D01*
X0352033Y0222287D01*
X0277033Y0222287D01*
X0267368Y0212622D01*
X0267368Y0153872D01*
X0267368Y0132612D01*
X0265788Y0131032D01*
X0264219Y0129463D01*
X0264219Y0108203D01*
X0267368Y0108203D02*
X0267368Y0113537D01*
X0269868Y0116037D01*
X0282368Y0116037D01*
X0288618Y0109787D01*
X0288618Y0102287D01*
X0281743Y0095412D01*
X0281743Y0041997D01*
X0275783Y0036037D01*
X0264799Y0045969D02*
X0264799Y0101042D01*
X0267368Y0103611D01*
X0267368Y0108203D01*
X0290203Y0131037D02*
X0299533Y0131037D01*
X0310783Y0119787D01*
X0310783Y0088537D01*
X0310793Y0088547D01*
X0317033Y0088547D01*
X0325783Y0088547D01*
X0325783Y0082287D01*
X0328935Y0079136D01*
X0328935Y0071037D01*
X0340132Y0071037D02*
X0374533Y0071037D01*
X0374533Y0136037D01*
X0369533Y0142287D02*
X0370793Y0143547D01*
X0370793Y0148537D01*
X0369533Y0142287D02*
X0369533Y0126037D01*
X0364533Y0121037D01*
X0334533Y0121037D01*
X0334533Y0062287D01*
X0310783Y0079797D02*
X0310774Y0079787D01*
X0310783Y0079797D02*
X0310783Y0088537D01*
X0334533Y0121037D02*
X0329533Y0126037D01*
X0329533Y0148537D01*
X0338274Y0157278D01*
X0338274Y0191037D01*
X0338283Y0191047D01*
X0345793Y0191047D01*
X0350783Y0196037D01*
X0350783Y0208537D01*
X0350301Y0209020D01*
X0398283Y0201372D02*
X0428618Y0201372D01*
X0433283Y0206037D01*
X0433283Y0223537D01*
X0427732Y0229089D01*
X0420783Y0229089D01*
X0400484Y0238537D02*
X0445783Y0238537D01*
X0448283Y0236037D01*
X0448283Y0229089D01*
X0447929Y0213518D02*
X0453264Y0213518D01*
X0458283Y0213537D01*
X0448283Y0247986D02*
X0449238Y0248783D01*
X0422092Y0248942D02*
X0420783Y0247986D01*
X0400484Y0238537D02*
X0376083Y0238537D01*
X0376083Y0247637D02*
X0376458Y0248779D01*
X0264219Y0213852D02*
X0264219Y0153872D01*
X0398283Y0173537D02*
X0403185Y0168636D01*
X0423913Y0168636D01*
X0447929Y0168636D01*
X0458283Y0161037D02*
X0458283Y0122287D01*
X0458283Y0076037D01*
X0453283Y0071037D01*
X0433283Y0071037D01*
X0428283Y0066037D01*
X0428283Y0042337D01*
X0425833Y0042337D01*
X0413283Y0029787D01*
X0377033Y0029787D01*
X0374533Y0032287D01*
X0374533Y0056037D01*
X0374533Y0071037D01*
X0428283Y0042337D02*
X0434425Y0042337D01*
X0434425Y0029738D02*
X0426984Y0029738D01*
X0412033Y0014787D01*
X0403618Y0014787D01*
X0382949Y0014787D02*
X0344533Y0014787D01*
X0264799Y0045969D02*
X0248618Y0029787D01*
X0143283Y0029787D01*
X0134533Y0038537D01*
X0134533Y0071037D01*
X0119533Y0092287D02*
X0135783Y0108537D01*
X0398283Y0173537D02*
X0398283Y0180703D01*
X0428283Y0122287D02*
X0418283Y0112287D01*
X0428283Y0102287D01*
X0448283Y0102287D01*
X0418283Y0112287D02*
X0409602Y0112287D01*
X0408825Y0111510D01*
X0428283Y0122287D02*
X0448283Y0122287D01*
X0458283Y0122287D01*
D33*
X0232033Y0081037D02*
X0232033Y0074787D01*
X0230158Y0072912D01*
X0208908Y0072912D01*
X0207033Y0074787D01*
X0207033Y0088537D01*
X0204533Y0091037D01*
X0204533Y0111237D01*
X0204533Y0124787D01*
X0207033Y0127287D01*
X0207033Y0187912D01*
X0208283Y0189162D01*
X0230158Y0189162D01*
X0232033Y0187287D01*
X0232033Y0181037D01*
X0222033Y0181037D02*
X0222033Y0173537D01*
X0212033Y0163537D01*
X0212033Y0124787D01*
X0209533Y0122287D01*
X0209533Y0111237D01*
X0209533Y0101037D01*
X0222033Y0088537D01*
X0222033Y0081037D01*
X0212033Y0081037D02*
X0212033Y0088537D01*
X0207033Y0093537D01*
X0207033Y0123537D01*
X0209533Y0126037D01*
X0209533Y0150837D01*
X0209533Y0171037D01*
X0212033Y0173537D01*
X0212033Y0181037D01*
X0202033Y0181037D02*
X0202033Y0173537D01*
X0204533Y0171037D01*
X0204533Y0150837D01*
X0204533Y0128537D01*
X0202033Y0126037D01*
X0202033Y0081037D01*
X0192033Y0081037D02*
X0192033Y0088537D01*
X0197033Y0093537D01*
X0197033Y0128537D01*
X0199533Y0131037D01*
X0199533Y0150837D01*
X0199533Y0166037D01*
X0192033Y0173537D01*
X0192033Y0181037D01*
X0182033Y0181037D02*
X0182033Y0173537D01*
X0194533Y0161037D01*
X0194533Y0150837D01*
X0194533Y0133537D01*
X0192033Y0131037D01*
X0192033Y0098537D01*
X0182033Y0088537D01*
X0182033Y0081037D01*
X0172033Y0081037D02*
X0172033Y0088537D01*
X0187033Y0103537D01*
X0187033Y0133537D01*
X0189533Y0136037D01*
X0189533Y0150837D01*
X0189533Y0156037D01*
X0172033Y0173537D01*
X0172033Y0181037D01*
X0162033Y0181037D02*
X0162033Y0173537D01*
X0163283Y0172287D01*
X0168283Y0172287D01*
X0184533Y0156037D01*
X0184533Y0150837D01*
X0184533Y0138537D01*
X0182033Y0136037D01*
X0182033Y0106037D01*
X0165783Y0089787D01*
X0163283Y0089787D01*
X0162033Y0088537D01*
X0162033Y0081037D01*
X0152033Y0081037D02*
X0152033Y0088537D01*
X0155783Y0092287D01*
X0164533Y0092287D01*
X0177033Y0104787D01*
X0177033Y0138537D01*
X0179533Y0141037D01*
X0179533Y0150837D01*
X0179533Y0157287D01*
X0167033Y0169787D01*
X0155783Y0169787D01*
X0152033Y0173537D01*
X0152033Y0181037D01*
X0142033Y0181037D02*
X0142033Y0173537D01*
X0148283Y0167287D01*
X0165783Y0167287D01*
X0174533Y0158537D01*
X0174533Y0150837D01*
X0174533Y0143537D01*
X0172033Y0141037D01*
X0172033Y0103537D01*
X0163283Y0094787D01*
X0148283Y0094787D01*
X0142033Y0088537D01*
X0142033Y0081037D01*
X0194533Y0111237D02*
X0194533Y0129787D01*
X0197033Y0132287D01*
X0197033Y0163537D01*
X0187033Y0173537D01*
X0187033Y0189162D01*
X0190783Y0192912D01*
X0221408Y0192912D01*
X0222033Y0193537D01*
X0222033Y0201037D01*
X0232033Y0201037D02*
X0232033Y0192287D01*
X0230783Y0191037D01*
X0199533Y0191037D01*
X0197033Y0188537D01*
X0197033Y0173537D01*
X0202033Y0168537D01*
X0202033Y0129787D01*
X0199533Y0127287D01*
X0199533Y0111237D01*
X0212033Y0103469D02*
X0219465Y0096037D01*
X0212033Y0103469D02*
X0212033Y0121037D01*
X0214533Y0123537D01*
X0214533Y0150837D01*
X0220075Y0136028D02*
X0222949Y0136028D01*
X0220075Y0136028D02*
X0216965Y0132917D01*
X0216965Y0121667D01*
X0214533Y0119236D01*
X0214533Y0111237D01*
D34*
X0360783Y0173537D02*
X0359750Y0175978D01*
X0364750Y0136441D02*
X0364533Y0136037D01*
X0408283Y0112287D02*
X0408825Y0111510D01*
X0409750Y0110585D01*
M02*
