G75*
%MOIN*%
%OFA0B0*%
%FSLAX25Y25*%
%IPPOS*%
%LPD*%
%AMOC8*
5,1,8,0,0,1.08239X$1,22.5*
%
%ADD10C,0.10643*%
%ADD11R,0.06706X0.02769*%
%ADD12R,0.02769X0.06706*%
%ADD13R,0.05918X0.06706*%
%ADD14R,0.03400X0.08800*%
%ADD15R,0.07800X0.20800*%
%ADD16R,0.06706X0.05918*%
%ADD17R,0.04800X0.13800*%
%ADD18C,0.10249*%
%ADD19R,0.15800X0.05800*%
%ADD20R,0.18800X0.07800*%
%ADD21R,0.12611X0.10643*%
%ADD22R,0.10643X0.12611*%
%ADD23R,0.06312X0.07887*%
%ADD24R,0.09461X0.10643*%
%ADD25R,0.07461X0.10643*%
%ADD26R,0.08674X0.02769*%
%ADD27C,0.04343*%
%ADD28C,0.06706*%
%ADD29C,0.07493*%
%ADD30R,0.06312X0.12611*%
%ADD31R,0.06800X0.08300*%
%ADD32R,0.09600X0.05600*%
%ADD33R,0.09461X0.14973*%
%ADD34R,0.13800X0.04800*%
%ADD35R,0.07099X0.07898*%
D10*
X0056118Y0042455D03*
X0056118Y0219620D03*
X0407949Y0222120D03*
X0410449Y0042455D03*
D11*
X0290203Y0115289D03*
X0290203Y0118439D03*
X0290203Y0121589D03*
X0290203Y0124738D03*
X0290203Y0127888D03*
X0290203Y0131037D03*
X0290203Y0134187D03*
X0290203Y0137337D03*
X0290203Y0140486D03*
X0290203Y0143636D03*
X0290203Y0146785D03*
X0244533Y0146785D03*
X0244533Y0143636D03*
X0244533Y0140486D03*
X0244533Y0137337D03*
X0244533Y0134187D03*
X0244533Y0131037D03*
X0244533Y0127888D03*
X0244533Y0124738D03*
X0244533Y0121589D03*
X0244533Y0118439D03*
X0244533Y0115289D03*
D12*
X0251620Y0108203D03*
X0254770Y0108203D03*
X0257919Y0108203D03*
X0261069Y0108203D03*
X0264219Y0108203D03*
X0267368Y0108203D03*
X0270518Y0108203D03*
X0273667Y0108203D03*
X0276817Y0108203D03*
X0279967Y0108203D03*
X0283116Y0108203D03*
X0283116Y0153872D03*
X0279967Y0153872D03*
X0276817Y0153872D03*
X0273667Y0153872D03*
X0270518Y0153872D03*
X0267368Y0153872D03*
X0264219Y0153872D03*
X0261069Y0153872D03*
X0257919Y0153872D03*
X0254770Y0153872D03*
X0251620Y0153872D03*
D13*
X0330793Y0191037D03*
X0338274Y0191037D03*
X0349543Y0148537D03*
X0357024Y0148537D03*
X0370793Y0148537D03*
X0378274Y0148537D03*
X0310774Y0079787D03*
X0303293Y0079787D03*
X0303274Y0071037D03*
X0295793Y0071037D03*
D14*
X0214533Y0111237D03*
X0209533Y0111237D03*
X0204533Y0111237D03*
X0199533Y0111237D03*
X0194533Y0111237D03*
X0189533Y0111237D03*
X0184533Y0111237D03*
X0179533Y0111237D03*
X0174533Y0111237D03*
X0169533Y0111237D03*
X0164533Y0111237D03*
X0159533Y0111237D03*
X0159533Y0150837D03*
X0164533Y0150837D03*
X0169533Y0150837D03*
X0174533Y0150837D03*
X0179533Y0150837D03*
X0184533Y0150837D03*
X0189533Y0150837D03*
X0194533Y0150837D03*
X0199533Y0150837D03*
X0204533Y0150837D03*
X0209533Y0150837D03*
X0214533Y0150837D03*
D15*
X0317033Y0150037D03*
X0317033Y0112037D03*
D16*
X0317033Y0096028D03*
X0317033Y0088547D03*
X0325783Y0088547D03*
X0325783Y0096028D03*
X0393283Y0102297D03*
X0393283Y0109778D03*
X0225783Y0108528D03*
X0225783Y0101047D03*
X0222949Y0128547D03*
X0222949Y0136028D03*
D17*
X0222033Y0181037D03*
X0232033Y0181037D03*
X0212033Y0181037D03*
X0202033Y0181037D03*
X0192033Y0181037D03*
X0182033Y0181037D03*
X0172033Y0181037D03*
X0162033Y0181037D03*
X0152033Y0181037D03*
X0142033Y0181037D03*
X0142033Y0201037D03*
X0152033Y0201037D03*
X0162033Y0201037D03*
X0172033Y0201037D03*
X0182033Y0201037D03*
X0192033Y0201037D03*
X0202033Y0201037D03*
X0212033Y0201037D03*
X0222033Y0201037D03*
X0232033Y0201037D03*
X0334533Y0136037D03*
X0344533Y0136037D03*
X0354533Y0136037D03*
X0364533Y0136037D03*
X0374533Y0136037D03*
X0384533Y0136037D03*
X0374533Y0056037D03*
X0364533Y0056037D03*
X0354533Y0056037D03*
X0344533Y0056037D03*
X0329533Y0046037D03*
X0319533Y0046037D03*
X0309533Y0046037D03*
X0299533Y0046037D03*
X0289533Y0046037D03*
X0289533Y0026037D03*
X0299533Y0026037D03*
X0309533Y0026037D03*
X0319533Y0026037D03*
X0329533Y0026037D03*
X0232033Y0061037D03*
X0222033Y0061037D03*
X0212033Y0061037D03*
X0202033Y0061037D03*
X0192033Y0061037D03*
X0182033Y0061037D03*
X0172033Y0061037D03*
X0162033Y0061037D03*
X0152033Y0061037D03*
X0142033Y0061037D03*
X0142033Y0081037D03*
X0152033Y0081037D03*
X0162033Y0081037D03*
X0172033Y0081037D03*
X0182033Y0081037D03*
X0192033Y0081037D03*
X0202033Y0081037D03*
X0212033Y0081037D03*
X0222033Y0081037D03*
X0232033Y0081037D03*
D18*
X0438283Y0082287D03*
X0438283Y0142287D03*
D19*
X0408283Y0142287D03*
X0398283Y0132287D03*
X0408283Y0112287D03*
X0398283Y0092287D03*
X0408283Y0082287D03*
D20*
X0448283Y0102287D03*
X0448283Y0122287D03*
D21*
X0398283Y0180703D03*
X0398283Y0201372D03*
D22*
X0403618Y0014787D03*
X0382949Y0014787D03*
D23*
X0369976Y0161037D03*
X0356591Y0161037D03*
D24*
X0423913Y0168636D03*
X0447929Y0168636D03*
X0447929Y0213518D03*
X0423913Y0213518D03*
X0436394Y0053557D03*
X0436394Y0018518D03*
D25*
X0457244Y0018518D03*
X0457244Y0053557D03*
D26*
X0434425Y0042337D03*
X0434425Y0039187D03*
X0434425Y0036037D03*
X0434425Y0032888D03*
X0434425Y0029738D03*
D27*
X0446236Y0027376D03*
X0446236Y0044699D03*
D28*
X0447969Y0191037D03*
D29*
X0430252Y0191037D03*
D30*
X0420783Y0229089D03*
X0448283Y0229089D03*
X0448283Y0247986D03*
X0420783Y0247986D03*
D31*
X0380783Y0208537D03*
X0370783Y0208537D03*
X0360783Y0208537D03*
X0350783Y0208537D03*
X0350783Y0173537D03*
X0360783Y0173537D03*
X0370783Y0173537D03*
X0380783Y0173537D03*
D32*
X0376083Y0229437D03*
X0376083Y0238537D03*
X0376083Y0247637D03*
D33*
X0400484Y0238537D03*
D34*
X0307033Y0211037D03*
X0307033Y0201037D03*
X0307033Y0191037D03*
X0307033Y0181037D03*
X0287033Y0181037D03*
X0287033Y0191037D03*
X0287033Y0201037D03*
X0287033Y0211037D03*
D35*
X0328935Y0071037D03*
X0340132Y0071037D03*
M02*
