<?xml version="1.0" encoding="utf-8"?>
<!-- Generator: Adobe Illustrator 19.0.0, SVG Export Plug-In . SVG Version: 6.00 Build 0)  -->
<svg version="1.1" id="Ebene_1" xmlns="http://www.w3.org/2000/svg" xmlns:xlink="http://www.w3.org/1999/xlink" x="0px" y="0px"
	 viewBox="0 0 595.3 841.9" style="enable-background:new 0 0 595.3 841.9;" xml:space="preserve">
<style type="text/css">
	.st0{clip-path:url(#SVGID_1_);fill:none;stroke:#FF0000;stroke-width:1;stroke-miterlimit:10;}
</style>
<g>
	<defs>
		<rect id="SVGID_205_" x="129" y="328.4" width="338" height="185.8"/>
	</defs>
	<clipPath id="SVGID_1_">
		<use xlink:href="#SVGID_205_"  style="overflow:visible;"/>
	</clipPath>
	<rect x="335.1" y="431.2" class="st0" width="4.2" height="1.4"/>
	<rect x="335.1" y="428.9" class="st0" width="4.2" height="1.4"/>
	<rect x="335.1" y="426.6" class="st0" width="4.2" height="1.4"/>
	<rect x="335.1" y="424.4" class="st0" width="4.2" height="1.4"/>
	<rect x="335.1" y="422.1" class="st0" width="4.2" height="1.4"/>
	<rect x="335.1" y="419.8" class="st0" width="4.2" height="1.4"/>
	<rect x="335.1" y="417.5" class="st0" width="4.2" height="1.4"/>
	<rect x="335.1" y="415.3" class="st0" width="4.2" height="1.4"/>
	<rect x="335.1" y="413" class="st0" width="4.2" height="1.4"/>
	<rect x="335.1" y="410.8" class="st0" width="4.2" height="1.4"/>
	<rect x="335.1" y="408.5" class="st0" width="4.2" height="1.4"/>
	<rect x="331.4" y="402" class="st0" width="1.4" height="4.2"/>
	<rect x="329.1" y="402" class="st0" width="1.4" height="4.2"/>
	<rect x="326.8" y="402" class="st0" width="1.4" height="4.2"/>
	<rect x="324.5" y="402" class="st0" width="1.4" height="4.2"/>
	<rect x="322.3" y="402" class="st0" width="1.4" height="4.2"/>
	<rect x="320" y="402" class="st0" width="1.4" height="4.2"/>
	<rect x="317.7" y="402" class="st0" width="1.4" height="4.2"/>
	<rect x="315.5" y="402" class="st0" width="1.4" height="4.2"/>
	<rect x="313.2" y="402" class="st0" width="1.4" height="4.2"/>
	<rect x="311" y="402" class="st0" width="1.4" height="4.2"/>
	<rect x="308.7" y="402" class="st0" width="1.4" height="4.2"/>
	<rect x="302.2" y="408.5" class="st0" width="4.2" height="1.4"/>
	<rect x="302.2" y="410.8" class="st0" width="4.2" height="1.4"/>
	<rect x="302.2" y="413" class="st0" width="4.2" height="1.4"/>
	<rect x="302.2" y="415.3" class="st0" width="4.2" height="1.4"/>
	<rect x="302.2" y="417.5" class="st0" width="4.2" height="1.4"/>
	<rect x="302.2" y="419.8" class="st0" width="4.2" height="1.4"/>
	<rect x="302.2" y="422.1" class="st0" width="4.2" height="1.4"/>
	<rect x="302.2" y="424.4" class="st0" width="4.2" height="1.4"/>
	<rect x="302.2" y="426.6" class="st0" width="4.2" height="1.4"/>
	<rect x="302.2" y="428.9" class="st0" width="4.2" height="1.4"/>
	<rect x="302.2" y="431.2" class="st0" width="4.2" height="1.4"/>
	<rect x="308.7" y="434.9" class="st0" width="1.4" height="4.2"/>
	<rect x="311" y="434.9" class="st0" width="1.4" height="4.2"/>
	<rect x="313.2" y="434.9" class="st0" width="1.4" height="4.2"/>
	<rect x="315.5" y="434.9" class="st0" width="1.4" height="4.2"/>
	<rect x="317.7" y="434.9" class="st0" width="1.4" height="4.2"/>
	<rect x="320" y="434.9" class="st0" width="1.4" height="4.2"/>
	<rect x="322.3" y="434.9" class="st0" width="1.4" height="4.2"/>
	<rect x="324.5" y="434.9" class="st0" width="1.4" height="4.2"/>
	<rect x="326.8" y="434.9" class="st0" width="1.4" height="4.2"/>
	<rect x="329.1" y="434.9" class="st0" width="1.4" height="4.2"/>
	<rect x="331.4" y="434.9" class="st0" width="1.4" height="4.2"/>
	<rect x="344.7" y="461.6" class="st0" width="3.7" height="4.2"/>
	<rect x="339.3" y="461.6" class="st0" width="3.7" height="4.2"/>
	<rect x="281.7" y="403.4" class="st0" width="1.9" height="5.8"/>
	<rect x="278.1" y="403.4" class="st0" width="1.9" height="5.8"/>
	<rect x="274.5" y="403.4" class="st0" width="1.9" height="5.8"/>
	<rect x="270.9" y="403.4" class="st0" width="1.9" height="5.8"/>
	<rect x="267.3" y="403.4" class="st0" width="1.9" height="5.8"/>
	<rect x="263.7" y="403.4" class="st0" width="1.9" height="5.8"/>
	<rect x="260.1" y="403.4" class="st0" width="1.9" height="5.8"/>
	<rect x="256.5" y="403.4" class="st0" width="1.9" height="5.8"/>
	<rect x="256.5" y="431.9" class="st0" width="1.9" height="5.8"/>
	<rect x="260.1" y="431.9" class="st0" width="1.9" height="5.8"/>
	<rect x="263.7" y="431.9" class="st0" width="1.9" height="5.8"/>
	<rect x="267.3" y="431.9" class="st0" width="1.9" height="5.8"/>
	<rect x="270.9" y="431.9" class="st0" width="1.9" height="5.8"/>
	<rect x="274.5" y="431.9" class="st0" width="1.9" height="5.8"/>
	<rect x="278.1" y="431.9" class="st0" width="1.9" height="5.8"/>
	<rect x="281.7" y="431.9" class="st0" width="1.9" height="5.8"/>
	<rect x="252.9" y="431.9" class="st0" width="1.9" height="5.8"/>
	<rect x="249.3" y="431.9" class="st0" width="1.9" height="5.8"/>
	<rect x="245.7" y="431.9" class="st0" width="1.9" height="5.8"/>
	<rect x="242.1" y="431.9" class="st0" width="1.9" height="5.8"/>
	<rect x="252.9" y="403.4" class="st0" width="1.9" height="5.8"/>
	<rect x="249.3" y="403.4" class="st0" width="1.9" height="5.8"/>
	<rect x="245.7" y="403.4" class="st0" width="1.9" height="5.8"/>
	<rect x="242.1" y="403.4" class="st0" width="1.9" height="5.8"/>
	<rect x="354" y="399.7" class="st0" width="5" height="14.4"/>
	<rect x="354" y="427" class="st0" width="5" height="14.4"/>
	<rect x="354.4" y="449.3" class="st0" width="4.2" height="3.7"/>
	<rect x="354.4" y="443.9" class="st0" width="4.2" height="3.7"/>
	<rect x="360.7" y="449.3" class="st0" width="4.2" height="3.7"/>
	<rect x="360.7" y="443.9" class="st0" width="4.2" height="3.7"/>
	<rect x="344.7" y="455.3" class="st0" width="3.7" height="4.2"/>
	<rect x="350.1" y="455.3" class="st0" width="3.7" height="4.2"/>
	<rect x="229.1" y="466.2" class="st0" width="2.9" height="9.4"/>
	<rect x="229.1" y="451.9" class="st0" width="2.9" height="9.4"/>
	<rect x="236.3" y="466.2" class="st0" width="2.9" height="9.4"/>
	<rect x="236.3" y="451.9" class="st0" width="2.9" height="9.4"/>
	<rect x="243.5" y="466.2" class="st0" width="2.9" height="9.4"/>
	<rect x="243.5" y="451.9" class="st0" width="2.9" height="9.4"/>
	<rect x="250.7" y="466.2" class="st0" width="2.9" height="9.4"/>
	<rect x="250.7" y="451.9" class="st0" width="2.9" height="9.4"/>
	<rect x="257.9" y="466.2" class="st0" width="2.9" height="9.4"/>
	<rect x="257.9" y="451.9" class="st0" width="2.9" height="9.4"/>
	<rect x="265.1" y="466.2" class="st0" width="2.9" height="9.4"/>
	<rect x="265.1" y="451.9" class="st0" width="2.9" height="9.4"/>
	<rect x="272.3" y="466.2" class="st0" width="2.9" height="9.4"/>
	<rect x="272.3" y="451.9" class="st0" width="2.9" height="9.4"/>
	<rect x="279.5" y="466.2" class="st0" width="2.9" height="9.4"/>
	<rect x="279.5" y="451.9" class="st0" width="2.9" height="9.4"/>
	<rect x="286.7" y="466.2" class="st0" width="2.9" height="9.4"/>
	<rect x="286.7" y="451.9" class="st0" width="2.9" height="9.4"/>
	<rect x="293.9" y="466.2" class="st0" width="2.9" height="9.4"/>
	<rect x="293.9" y="451.9" class="st0" width="2.9" height="9.4"/>
	<rect x="229.1" y="379.9" class="st0" width="2.9" height="9.4"/>
	<rect x="229.1" y="365.5" class="st0" width="2.9" height="9.4"/>
	<rect x="236.3" y="379.9" class="st0" width="2.9" height="9.4"/>
	<rect x="236.3" y="365.5" class="st0" width="2.9" height="9.4"/>
	<rect x="243.5" y="379.9" class="st0" width="2.9" height="9.4"/>
	<rect x="243.5" y="365.5" class="st0" width="2.9" height="9.4"/>
	<rect x="250.7" y="379.9" class="st0" width="2.9" height="9.4"/>
	<rect x="250.7" y="365.5" class="st0" width="2.9" height="9.4"/>
	<rect x="257.9" y="379.9" class="st0" width="2.9" height="9.4"/>
	<rect x="257.9" y="365.5" class="st0" width="2.9" height="9.4"/>
	<rect x="265.1" y="379.9" class="st0" width="2.9" height="9.4"/>
	<rect x="265.1" y="365.5" class="st0" width="2.9" height="9.4"/>
	<rect x="272.3" y="379.9" class="st0" width="2.9" height="9.4"/>
	<rect x="272.3" y="365.5" class="st0" width="2.9" height="9.4"/>
	<rect x="279.5" y="379.9" class="st0" width="2.9" height="9.4"/>
	<rect x="279.5" y="365.5" class="st0" width="2.9" height="9.4"/>
	<rect x="286.7" y="379.9" class="st0" width="2.9" height="9.4"/>
	<rect x="286.7" y="365.5" class="st0" width="2.9" height="9.4"/>
	<rect x="293.9" y="379.9" class="st0" width="2.9" height="9.4"/>
	<rect x="293.9" y="365.5" class="st0" width="2.9" height="9.4"/>
	<rect x="364" y="477" class="st0" width="2.9" height="9.4"/>
	<rect x="364" y="491.4" class="st0" width="2.9" height="9.4"/>
	<rect x="356.9" y="477" class="st0" width="2.9" height="9.4"/>
	<rect x="356.9" y="491.4" class="st0" width="2.9" height="9.4"/>
	<rect x="349.7" y="477" class="st0" width="2.9" height="9.4"/>
	<rect x="349.7" y="491.4" class="st0" width="2.9" height="9.4"/>
	<rect x="342.5" y="477" class="st0" width="2.9" height="9.4"/>
	<rect x="342.5" y="491.4" class="st0" width="2.9" height="9.4"/>
	<rect x="335.3" y="477" class="st0" width="2.9" height="9.4"/>
	<rect x="335.3" y="491.4" class="st0" width="2.9" height="9.4"/>
	<rect x="409.5" y="446.6" class="st0" width="10.8" height="3.6"/>
	<rect x="416.7" y="432.2" class="st0" width="10.8" height="3.6"/>
	<rect x="409.5" y="417.8" class="st0" width="10.8" height="3.6"/>
	<rect x="416.7" y="410.6" class="st0" width="10.8" height="3.6"/>
	<rect x="416.7" y="453.8" class="st0" width="10.8" height="3.6"/>
	<rect x="444.5" y="438.7" class="st0" width="13" height="5"/>
	<rect x="444.5" y="424.3" class="st0" width="13" height="5"/>
	<rect x="378" y="405.8" class="st0" width="3.7" height="4.2"/>
	<rect x="383.4" y="405.8" class="st0" width="3.7" height="4.2"/>
	<rect x="409.2" y="439.4" class="st0" width="4.2" height="3.7"/>
	<rect x="409.2" y="434" class="st0" width="4.2" height="3.7"/>
	<rect x="398.7" y="405.8" class="st0" width="3.7" height="4.2"/>
	<rect x="393.3" y="405.8" class="st0" width="3.7" height="4.2"/>
	<rect x="364.5" y="375.2" class="st0" width="3.7" height="4.2"/>
	<rect x="369.9" y="375.2" class="st0" width="3.7" height="4.2"/>
	<rect x="410.7" y="366.4" class="st0" width="8.5" height="7.1"/>
	<rect x="410.7" y="381.2" class="st0" width="8.5" height="7.1"/>
	<rect x="400.4" y="499.9" class="st0" width="7.1" height="8.5"/>
	<rect x="415.2" y="499.9" class="st0" width="7.1" height="8.5"/>
	<rect x="383" y="396.4" class="st0" width="4" height="5"/>
	<rect x="392.6" y="396.4" class="st0" width="4" height="5"/>
	<rect x="439.2" y="497.9" class="st0" width="6.2" height="7.1"/>
	<rect x="439.2" y="472.7" class="st0" width="6.2" height="7.1"/>
	<rect x="455" y="497.9" class="st0" width="4.8" height="7.1"/>
	<rect x="455" y="472.7" class="st0" width="4.8" height="7.1"/>
	<rect x="438.2" y="492.7" class="st0" width="5.6" height="1.4"/>
	<rect x="438.2" y="490.4" class="st0" width="5.6" height="1.4"/>
	<rect x="438.2" y="488.2" class="st0" width="5.6" height="1.4"/>
	<rect x="438.2" y="485.9" class="st0" width="5.6" height="1.4"/>
	<rect x="438.2" y="483.7" class="st0" width="5.6" height="1.4"/>
	<rect x="430.3" y="389.9" class="st0" width="6.2" height="7.1"/>
	<rect x="447.6" y="389.9" class="st0" width="6.2" height="7.1"/>
	<rect x="430.3" y="357.7" class="st0" width="6.2" height="7.1"/>
	<rect x="447.6" y="357.7" class="st0" width="6.2" height="7.1"/>
	<rect x="429.2" y="332.1" class="st0" width="4" height="8.5"/>
	<rect x="429.2" y="345.7" class="st0" width="4" height="8.5"/>
	<rect x="449" y="332.1" class="st0" width="4" height="8.5"/>
	<rect x="449" y="345.7" class="st0" width="4" height="8.5"/>
	<rect x="378.6" y="387.2" class="st0" width="4.3" height="5.4"/>
	<rect x="385.8" y="387.2" class="st0" width="4.3" height="5.4"/>
	<rect x="393" y="387.2" class="st0" width="4.3" height="5.4"/>
	<rect x="400.2" y="387.2" class="st0" width="4.3" height="5.4"/>
	<rect x="400.2" y="362.1" class="st0" width="4.3" height="5.4"/>
	<rect x="393" y="362.1" class="st0" width="4.3" height="5.4"/>
	<rect x="385.8" y="362.1" class="st0" width="4.3" height="5.4"/>
	<rect x="378.6" y="362.1" class="st0" width="4.3" height="5.4"/>
	<rect x="288.7" y="440.3" class="st0" width="4.2" height="3.7"/>
	<rect x="288.7" y="434.9" class="st0" width="4.2" height="3.7"/>
	<rect x="395.8" y="334.9" class="st0" width="6.4" height="3.5"/>
	<rect x="395.8" y="341.5" class="st0" width="6.4" height="3.5"/>
	<rect x="395.8" y="348" class="st0" width="6.4" height="3.5"/>
	<rect x="413.4" y="338.1" class="st0" width="6.2" height="10.2"/>
	<rect x="330.2" y="361.6" class="st0" width="9.4" height="2.9"/>
	<rect x="344.6" y="361.6" class="st0" width="9.4" height="2.9"/>
	<rect x="330.2" y="368.8" class="st0" width="9.4" height="2.9"/>
	<rect x="344.6" y="368.8" class="st0" width="9.4" height="2.9"/>
	<rect x="330.2" y="375.9" class="st0" width="9.4" height="2.9"/>
	<rect x="344.6" y="375.9" class="st0" width="9.4" height="2.9"/>
	<rect x="330.2" y="383.1" class="st0" width="9.4" height="2.9"/>
	<rect x="344.6" y="383.1" class="st0" width="9.4" height="2.9"/>
	<rect x="286.7" y="415.1" class="st0" width="4.2" height="3.7"/>
	<rect x="286.7" y="420.5" class="st0" width="4.2" height="3.7"/>
	<rect x="367.6" y="412.3" class="st0" width="2.9" height="9.4"/>
	<rect x="374.8" y="469.8" class="st0" width="2.9" height="9.4"/>
	<rect x="374.8" y="412.3" class="st0" width="2.9" height="9.4"/>
	<rect x="382" y="469.8" class="st0" width="2.9" height="9.4"/>
	<rect x="382" y="412.3" class="st0" width="2.9" height="9.4"/>
	<rect x="389.2" y="469.8" class="st0" width="2.9" height="9.4"/>
	<rect x="389.2" y="412.3" class="st0" width="2.9" height="9.4"/>
	<rect x="396.4" y="469.8" class="st0" width="2.9" height="9.4"/>
	<rect x="396.4" y="412.3" class="st0" width="2.9" height="9.4"/>
	<rect x="403.6" y="412.3" class="st0" width="2.9" height="9.4"/>
	<rect x="362.7" y="461.2" class="st0" width="4.6" height="5.2"/>
	<rect x="370.8" y="461.2" class="st0" width="4.6" height="5.2"/>
	
		<use xlink:href="#SVGID_205_"  style="overflow:visible;fill-rule:evenodd;clip-rule:evenodd;fill:none;stroke:#FF0000;stroke-width:1;stroke-miterlimit:10;"/>
</g>
</svg>
